<svg xmlns="http://www.w3.org/2000/svg" viewBox="0 0 311.33 25.54"><defs><style>.cls-1{fill:#f28fb1;}</style></defs><title>friends</title><g id="Layer_2" data-name="Layer 2"><g id="text"><path class="cls-1" d="M11,19.82H9.18l-.39-2a5.12,5.12,0,0,1-4.42,2.21C2,20.05,0,18.79,0,15.76s2.52-4.62,6.38-4.62h2.3v-.61c0-2.19-1.37-2.91-3.08-2.91A2.83,2.83,0,0,0,2.66,9.83L.59,9.35C1,7,2.94,5.49,5.6,5.49,8.71,5.49,11,7.06,11,10.81Zm-6.3-1.9c1.82,0,3.95-1.12,3.95-4.31v-.34H6.16c-2.41,0-3.75.9-3.75,2.49A2.05,2.05,0,0,0,4.73,17.92Z"/><path class="cls-1" d="M17.64,0V19.82H15.29V0Z"/><path class="cls-1" d="M24.64,0V19.82H22.29V0Z"/><path class="cls-1" d="M45.19,7.64,43.6,9A3.29,3.29,0,0,0,41,7.62a1.65,1.65,0,0,0-1.71,1.79c0,2.55,6.55,2,6.55,6.16,0,2.83-1.82,4.48-4.67,4.48a5.53,5.53,0,0,1-5.27-3.81l2-1.09c.62,1.51,1.71,2.77,3.28,2.77a2,2,0,0,0,2.27-2.21c0-2.63-6.5-1.74-6.5-6.33A3.85,3.85,0,0,1,41.1,5.49,4.77,4.77,0,0,1,45.19,7.64Z"/><path class="cls-1" d="M61,19.82H58.66V10.5c0-1.93-.87-2.88-2.44-2.88C54.15,7.62,52,9.94,52,13.83v6H49.62V0H52V8.34a5.44,5.44,0,0,1,4.9-2.85C59.44,5.49,61,7,61,10Z"/><path class="cls-1" d="M75.82,19.82H74l-.4-2a5.12,5.12,0,0,1-4.42,2.21c-2.35,0-4.37-1.26-4.37-4.29s2.52-4.62,6.39-4.62h2.29v-.61c0-2.19-1.37-2.91-3.08-2.91a2.84,2.84,0,0,0-2.94,2.21l-2.07-.48c.39-2.38,2.35-3.86,5-3.86,3.11,0,5.43,1.57,5.43,5.32Zm-6.3-1.9c1.82,0,4-1.12,4-4.31v-.34H71c-2.41,0-3.75.9-3.75,2.49A2.05,2.05,0,0,0,69.52,17.92Z"/><path class="cls-1" d="M86.69,20.05a5.46,5.46,0,0,1-4.12-1.91v7.4H80.22V5.71h2.35V7.45a5.24,5.24,0,0,1,4.12-2c4.14,0,6.27,3,6.27,7.28S90.83,20.05,86.69,20.05ZM86.46,7.62c-2.57,0-4.08,2.12-4.08,5.15s1.51,5.15,4.08,5.15,4.09-2.13,4.09-5.15S89,7.62,86.46,7.62Z"/><path class="cls-1" d="M109,13.27H98.64c.14,2.61,1.43,4.65,4,4.65a3.89,3.89,0,0,0,3.92-2.69l2.07.9c-1.31,2.74-3.08,3.92-6,3.92-4.28,0-6.38-3.5-6.38-7.28s2.1-7.28,6.38-7.28S109,8.68,109,12.18ZM98.78,11.14h7.76c-.42-2-1.65-3.52-3.92-3.52S99.2,9.1,98.78,11.14Z"/><path class="cls-1" d="M120.93,7.64,119.34,9a3.29,3.29,0,0,0-2.58-1.4,1.65,1.65,0,0,0-1.71,1.79c0,2.55,6.55,2,6.55,6.16,0,2.83-1.82,4.48-4.67,4.48a5.53,5.53,0,0,1-5.27-3.81l2-1.09c.62,1.51,1.71,2.77,3.28,2.77a2,2,0,0,0,2.27-2.21c0-2.63-6.5-1.74-6.5-6.33a3.85,3.85,0,0,1,4.14-3.89A4.77,4.77,0,0,1,120.93,7.64Z"/><path class="cls-1" d="M143.25,19.82H141.4l-.39-2a5.15,5.15,0,0,1-4.43,2.21c-2.35,0-4.36-1.26-4.36-4.29s2.52-4.62,6.38-4.62h2.3v-.61c0-2.19-1.38-2.91-3.08-2.91a2.82,2.82,0,0,0-2.94,2.21l-2.08-.48c.4-2.38,2.36-3.86,5-3.86,3.1,0,5.43,1.57,5.43,5.32Zm-6.3-1.9c1.82,0,4-1.12,4-4.31v-.34h-2.52c-2.41,0-3.76.9-3.76,2.49A2.05,2.05,0,0,0,137,17.92Z"/><path class="cls-1" d="M155.18,8a3.75,3.75,0,0,0-1.66-.39c-1.93,0-3.94,2.26-3.94,6.86v5.34h-2.36V5.71h2.36V8.12a5,5,0,0,1,4.14-2.63,4.32,4.32,0,0,1,1.93.42Z"/><path class="cls-1" d="M169.93,13.27H159.57c.14,2.61,1.43,4.65,4,4.65a3.89,3.89,0,0,0,3.92-2.69l2.07.9c-1.32,2.74-3.08,3.92-6,3.92-4.29,0-6.39-3.5-6.39-7.28s2.1-7.28,6.39-7.28,6.38,3.19,6.38,6.69Zm-10.22-2.13h7.76c-.42-2-1.65-3.52-3.92-3.52S160.13,9.1,159.71,11.14Z"/><path class="cls-1" d="M200.51,19.82h-2.35V10.39c0-1.82-.79-2.77-2.27-2.77-2,0-3.76,2.29-3.76,6.41v5.79h-2.35V10.39c0-1.82-.78-2.77-2.27-2.77-2,0-3.75,2.29-3.75,6.41v5.79h-2.35V5.71h2.35V8.32a4.81,4.81,0,0,1,4.4-2.83,3.65,3.65,0,0,1,3.78,2.94,5.1,5.1,0,0,1,4.59-2.94c2.58,0,4,1.68,4,4.39Z"/><path class="cls-1" d="M215.51,5.71l-7,19.83h-2.4l2.24-6.3-5-13.53H206l3.58,10.19,3.5-10.19Z"/><path class="cls-1" d="M224.67,5.71h2V4.79c0-3.25,1.7-4.79,4.56-4.79a4.54,4.54,0,0,1,2,.45l-.48,2.07a3.6,3.6,0,0,0-1.57-.39c-1.54,0-2.18.84-2.18,2.66v.92h3.25V7.84H229v12h-2.35v-12h-2Z"/><path class="cls-1" d="M243.66,8A3.75,3.75,0,0,0,242,7.62c-1.93,0-3.95,2.26-3.95,6.86v5.34H235.7V5.71h2.35V8.12a5,5,0,0,1,4.15-2.63,4.32,4.32,0,0,1,1.93.42Z"/><path class="cls-1" d="M248.19,0A1.74,1.74,0,0,1,250,1.79a1.76,1.76,0,0,1-3.52,0A1.74,1.74,0,0,1,248.19,0Zm1.18,5.71V19.82H247V5.71Z"/><path class="cls-1" d="M265.86,13.27H255.5c.14,2.61,1.43,4.65,4,4.65a3.88,3.88,0,0,0,3.92-2.69l2.08.9c-1.32,2.74-3.08,3.92-6,3.92-4.28,0-6.38-3.5-6.38-7.28s2.1-7.28,6.38-7.28,6.39,3.19,6.39,6.69Zm-10.22-2.13h7.75c-.42-2-1.65-3.52-3.92-3.52S256.06,9.1,255.64,11.14Z"/><path class="cls-1" d="M281.06,19.82h-2.35V10.5c0-1.93-.87-2.88-2.44-2.88-2.1,0-4,2.38-4,6.3v5.9h-2.35V5.71h2.35V8.32a5.28,5.28,0,0,1,4.68-2.83c2.57,0,4.14,1.59,4.14,4.39Z"/><path class="cls-1" d="M290.92,5.49A5.49,5.49,0,0,1,295,7.39V0h2.35V19.82H295V18.09a5.28,5.28,0,0,1-4.12,2c-4.15,0-6.27-3.05-6.27-7.28S286.77,5.49,290.92,5.49Zm.22,12.43c2.58,0,4.09-2.13,4.09-5.15s-1.51-5.15-4.09-5.15-4.09,2.12-4.09,5.15S288.65,17.92,291.14,17.92Z"/><path class="cls-1" d="M310.66,7.64,309.06,9a3.26,3.26,0,0,0-2.57-1.4,1.65,1.65,0,0,0-1.71,1.79c0,2.55,6.55,2,6.55,6.16,0,2.83-1.82,4.48-4.68,4.48a5.53,5.53,0,0,1-5.26-3.81l2-1.09c.61,1.51,1.71,2.77,3.27,2.77a2,2,0,0,0,2.27-2.21c0-2.63-6.49-1.74-6.49-6.33a3.85,3.85,0,0,1,4.14-3.89A4.77,4.77,0,0,1,310.66,7.64Z"/></g></g></svg>