<svg xmlns="http://www.w3.org/2000/svg" viewBox="0 0 82.35 82.35"><defs><style>.cls-1{fill:#f28fb1;}.cls-2{fill:#edc729;}</style></defs><title>pink_1</title><g id="Layer_2" data-name="Layer 2"><g id="pink"><rect class="cls-1" width="82.35" height="82.35"/><path class="cls-2" d="M14.66,41.87a10.24,10.24,0,0,1-7.77-3.58,2,2,0,0,1,.23-2.82,2,2,0,0,1,2.81.22,6.22,6.22,0,0,0,9.46,0,2,2,0,0,1,2.81-.22,2,2,0,0,1,.23,2.82A10.24,10.24,0,0,1,14.66,41.87Z"/><path class="cls-2" d="M67.69,41.87a10.2,10.2,0,0,1-7.76-3.58,2,2,0,0,1,3-2.6,6.21,6.21,0,0,0,9.45,0,2,2,0,0,1,3,2.6A10.21,10.21,0,0,1,67.69,41.87Z"/><path class="cls-2" d="M41.18,68.66h0a10.21,10.21,0,0,1-7.77-3.58,2,2,0,1,1,3-2.6,6.21,6.21,0,0,0,9.45,0,2,2,0,1,1,3,2.6A10.2,10.2,0,0,1,41.18,68.66Z"/><circle class="cls-2" cx="41.18" cy="41.18" r="9.21"/></g></g></svg>